# xmcd CD database file
#
# Track frame offsets:
#	150
#	17700
#	38745
#	55475
#	75520
#	97802
#	123050
#	139635
#	162595
#	190735
#	214715
#
# Disc length: 3056 seconds
#
# Revision: 0
# Processed by: cddbd v1.4PL0 Copyright (c) Steve Scherf et al.
# Submitted via: CdAid 2001.05.15.01
#
DISCID=860bee0b
DTITLE=Texas Johnny Brown - Blues Defender
DYEAR=1900
DGENRE=
TTITLE0=Handy Man
TTITLE1=In The Dark
TTITLE2=Did You Lose Your Way?
TTITLE3=Run Away Girl
TTITLE4=Bad Hair Day
TTITLE5=Quality Blues
TTITLE6=BLUES DEFENDER
TTITLE7=Moanin'and Groanin'
TTITLE8=Just Can't Do It
TTITLE9=Love So Strong
TTITLE10=RAINED OUT
EXTD=Choctaw Creek Records (www.choctawcreekrecords.com)
EXTT0=
EXTT1=
EXTT2=
EXTT3=
EXTT4=
EXTT5=
EXTT6=
EXTT7=
EXTT8=
EXTT9=
EXTT10=
PLAYORDER=
